<svg aria-roledescription="er" viewBox="0 0 568.75146484375 793" style="max-width: 568.751px; background-color: white;" xmlns:xlink="http://www.w3.org/1999/xlink" xmlns="http://www.w3.org/2000/svg" width="100%" id="mermaid-0"><style>#mermaid-0{font-family:"trebuchet ms",verdana,arial,sans-serif;font-size:16px;fill:#000000;}#mermaid-0 .error-icon{fill:#552222;}#mermaid-0 .error-text{fill:#552222;stroke:#552222;}#mermaid-0 .edge-thickness-normal{stroke-width:2px;}#mermaid-0 .edge-thickness-thick{stroke-width:3.5px;}#mermaid-0 .edge-pattern-solid{stroke-dasharray:0;}#mermaid-0 .edge-pattern-dashed{stroke-dasharray:3;}#mermaid-0 .edge-pattern-dotted{stroke-dasharray:2;}#mermaid-0 .marker{fill:#000000;stroke:#000000;}#mermaid-0 .marker.cross{stroke:#000000;}#mermaid-0 svg{font-family:"trebuchet ms",verdana,arial,sans-serif;font-size:16px;}#mermaid-0 .entityBox{fill:#cde498;stroke:#13540c;}#mermaid-0 .attributeBoxOdd{fill:#ffffff;stroke:#13540c;}#mermaid-0 .attributeBoxEven{fill:#f2f2f2;stroke:#13540c;}#mermaid-0 .relationshipLabelBox{fill:hsl(78.1578947368, 58.4615384615%, 84.5098039216%);opacity:0.7;background-color:hsl(78.1578947368, 58.4615384615%, 84.5098039216%);}#mermaid-0 .relationshipLabelBox rect{opacity:0.5;}#mermaid-0 .relationshipLine{stroke:#000000;}#mermaid-0 .entityTitleText{text-anchor:middle;font-size:18px;fill:#000000;}#mermaid-0 :root{--mermaid-font-family:"trebuchet ms",verdana,arial,sans-serif;}</style><g/><defs><marker orient="auto" markerHeight="18" markerWidth="18" refY="9" refX="0" id="ONLY_ONE_START"><path d="M9,0 L9,18 M15,0 L15,18" fill="none" stroke="gray"/></marker></defs><defs><marker orient="auto" markerHeight="18" markerWidth="18" refY="9" refX="18" id="ONLY_ONE_END"><path d="M3,0 L3,18 M9,0 L9,18" fill="none" stroke="gray"/></marker></defs><defs><marker orient="auto" markerHeight="18" markerWidth="30" refY="9" refX="0" id="ZERO_OR_ONE_START"><circle r="6" cy="9" cx="21" fill="white" stroke="gray"/><path d="M9,0 L9,18" fill="none" stroke="gray"/></marker></defs><defs><marker orient="auto" markerHeight="18" markerWidth="30" refY="9" refX="30" id="ZERO_OR_ONE_END"><circle r="6" cy="9" cx="9" fill="white" stroke="gray"/><path d="M21,0 L21,18" fill="none" stroke="gray"/></marker></defs><defs><marker orient="auto" markerHeight="36" markerWidth="45" refY="18" refX="18" id="ONE_OR_MORE_START"><path d="M0,18 Q 18,0 36,18 Q 18,36 0,18 M42,9 L42,27" fill="none" stroke="gray"/></marker></defs><defs><marker orient="auto" markerHeight="36" markerWidth="45" refY="18" refX="27" id="ONE_OR_MORE_END"><path d="M3,9 L3,27 M9,18 Q27,0 45,18 Q27,36 9,18" fill="none" stroke="gray"/></marker></defs><defs><marker orient="auto" markerHeight="36" markerWidth="57" refY="18" refX="18" id="ZERO_OR_MORE_START"><circle r="6" cy="18" cx="48" fill="white" stroke="gray"/><path d="M0,18 Q18,0 36,18 Q18,36 0,18" fill="none" stroke="gray"/></marker></defs><defs><marker orient="auto" markerHeight="36" markerWidth="57" refY="18" refX="39" id="ZERO_OR_MORE_END"><circle r="6" cy="18" cx="9" fill="white" stroke="gray"/><path d="M21,18 Q39,0 57,18 Q39,36 21,18" fill="none" stroke="gray"/></marker></defs><path style="stroke: gray; fill: none;" marker-start="url(#ZERO_OR_MORE_START)" marker-end="url(#ZERO_OR_ONE_END)" d="M91.00956726074219,544L91.00956726074219,552.3333333333334C91.00956726074219,560.6666666666666,91.00956726074219,577.3333333333334,97.23262283791621,594C103.45567841509023,610.6666666666666,115.90178956943828,627.3333333333334,122.1248451466123,635.6666666666666L128.34790072378632,644" class="er relationshipLine"/><path style="stroke: gray; fill: none;" marker-start="url(#ZERO_OR_MORE_START)" marker-end="url(#ONLY_ONE_END)" d="M195.01298196499164,304.5L206.18067405774045,318.0833333333333C217.34836615048923,331.6666666666667,239.68375033598682,358.8333333333333,250.8514424287356,389.75C262.0191345214844,420.6666666666667,262.0191345214844,455.3333333333333,262.0191345214844,490C262.0191345214844,524.6666666666666,262.0191345214844,559.3333333333334,255.79607894431035,585C249.57302336713633,610.6666666666666,237.12691221278828,627.3333333333334,230.90385663561426,635.6666666666666L224.68080105844024,644" class="er relationshipLine"/><path style="stroke: gray; fill: none;" marker-start="url(#ZERO_OR_MORE_START)" marker-end="url(#ONLY_ONE_END)" d="M158.01571981723492,304.5L146.84802772448612,318.0833333333333C135.68033563173734,331.6666666666667,113.34495144623976,358.8333333333333,102.17725935349097,380.75C91.00956726074219,402.6666666666667,91.00956726074219,419.3333333333333,91.00956726074219,427.6666666666667L91.00956726074219,436" class="er relationshipLine"/><path style="stroke: gray; fill: none;" marker-start="url(#ZERO_OR_MORE_START)" marker-end="url(#ONLY_ONE_END)" d="M239.28323202866773,128L228.82175183907532,136.33333333333334C218.3602716494829,144.66666666666666,197.4373112702981,161.33333333333334,186.9758310807057,183.25C176.51435089111328,205.16666666666666,176.51435089111328,232.33333333333334,176.51435089111328,245.91666666666666L176.51435089111328,259.5" class="er relationshipLine"/><path style="stroke: gray; fill: none;" marker-start="url(#ZERO_OR_MORE_START)" marker-end="url(#ONLY_ONE_END)" d="M374.8640152857854,128L385.32549547537775,136.33333333333334C395.7869756649702,144.66666666666666,416.70993604415503,161.33333333333334,427.1714162337474,178C437.63289642333984,194.66666666666666,437.63289642333984,211.33333333333334,437.63289642333984,219.66666666666666L437.63289642333984,228" class="er relationshipLine"/><g transform="translate(20,436 )" id="entity-Pool-b896d175-7892-4de9-a9b4-3dd854c97e16"><rect height="108" width="142.01913452148438" y="0" x="0" class="er entityBox"/><text style="dominant-baseline: middle; text-anchor: middle; font-size: 12px;" transform="translate(71.00956726074219,12)" y="0" x="0" id="text-entity-Pool-b896d175-7892-4de9-a9b4-3dd854c97e16" class="er entityLabel">Pool</text><rect height="21" width="59.28125" y="24" x="0" class="er attributeBoxOdd"/><text style="dominant-baseline: middle; font-size: 10.2px;" transform="translate(5,34.5)" y="0" x="0" id="text-entity-Pool-b896d175-7892-4de9-a9b4-3dd854c97e16-attr-1-type" class="er entityLabel">String</text><rect height="21" width="59.59454345703125" y="24" x="59.28125" class="er attributeBoxOdd"/><text style="dominant-baseline: middle; font-size: 10.2px;" transform="translate(64.28125,34.5)" y="0" x="0" id="text-entity-Pool-b896d175-7892-4de9-a9b4-3dd854c97e16-attr-1-name" class="er entityLabel">id</text><rect height="21" width="23.143341064453125" y="24" x="118.87579345703125" class="er attributeBoxOdd"/><text style="dominant-baseline: middle; font-size: 10.2px;" transform="translate(123.87579345703125,34.5)" y="0" x="0" id="text-entity-Pool-b896d175-7892-4de9-a9b4-3dd854c97e16-attr-1-key" class="er entityLabel">PK</text><rect height="21" width="59.28125" y="45" x="0" class="er attributeBoxEven"/><text style="dominant-baseline: middle; font-size: 10.2px;" transform="translate(5,55.5)" y="0" x="0" id="text-entity-Pool-b896d175-7892-4de9-a9b4-3dd854c97e16-attr-2-type" class="er entityLabel">String</text><rect height="21" width="59.59454345703125" y="45" x="59.28125" class="er attributeBoxEven"/><text style="dominant-baseline: middle; font-size: 10.2px;" transform="translate(64.28125,55.5)" y="0" x="0" id="text-entity-Pool-b896d175-7892-4de9-a9b4-3dd854c97e16-attr-2-name" class="er entityLabel">title</text><rect height="21" width="23.143341064453125" y="45" x="118.87579345703125" class="er attributeBoxEven"/><text style="dominant-baseline: middle; font-size: 10.2px;" transform="translate(123.87579345703125,55.5)" y="0" x="0" id="text-entity-Pool-b896d175-7892-4de9-a9b4-3dd854c97e16-attr-2-key" class="er entityLabel"/><rect height="21" width="59.28125" y="66" x="0" class="er attributeBoxOdd"/><text style="dominant-baseline: middle; font-size: 10.2px;" transform="translate(5,76.5)" y="0" x="0" id="text-entity-Pool-b896d175-7892-4de9-a9b4-3dd854c97e16-attr-3-type" class="er entityLabel">String</text><rect height="21" width="59.59454345703125" y="66" x="59.28125" class="er attributeBoxOdd"/><text style="dominant-baseline: middle; font-size: 10.2px;" transform="translate(64.28125,76.5)" y="0" x="0" id="text-entity-Pool-b896d175-7892-4de9-a9b4-3dd854c97e16-attr-3-name" class="er entityLabel">code</text><rect height="21" width="23.143341064453125" y="66" x="118.87579345703125" class="er attributeBoxOdd"/><text style="dominant-baseline: middle; font-size: 10.2px;" transform="translate(123.87579345703125,76.5)" y="0" x="0" id="text-entity-Pool-b896d175-7892-4de9-a9b4-3dd854c97e16-attr-3-key" class="er entityLabel"/><rect height="21" width="59.28125" y="87" x="0" class="er attributeBoxEven"/><text style="dominant-baseline: middle; font-size: 10.2px;" transform="translate(5,97.5)" y="0" x="0" id="text-entity-Pool-b896d175-7892-4de9-a9b4-3dd854c97e16-attr-4-type" class="er entityLabel">DateTime</text><rect height="21" width="59.59454345703125" y="87" x="59.28125" class="er attributeBoxEven"/><text style="dominant-baseline: middle; font-size: 10.2px;" transform="translate(64.28125,97.5)" y="0" x="0" id="text-entity-Pool-b896d175-7892-4de9-a9b4-3dd854c97e16-attr-4-name" class="er entityLabel">createdAt</text><rect height="21" width="23.143341064453125" y="87" x="118.87579345703125" class="er attributeBoxEven"/><text style="dominant-baseline: middle; font-size: 10.2px;" transform="translate(123.87579345703125,97.5)" y="0" x="0" id="text-entity-Pool-b896d175-7892-4de9-a9b4-3dd854c97e16-attr-4-key" class="er entityLabel"/></g><g transform="translate(126.51435089111328,259.5 )" id="entity-Participant-68b32e9a-f3aa-44cd-bbeb-65732517fccf"><rect height="45" width="100" y="0" x="0" class="er entityBox"/><text style="dominant-baseline: middle; text-anchor: middle; font-size: 12px;" transform="translate(50,12)" y="0" x="0" id="text-entity-Participant-68b32e9a-f3aa-44cd-bbeb-65732517fccf" class="er entityLabel">Participant</text><rect height="21" width="46.11888631184896" y="24" x="0" class="er attributeBoxOdd"/><text style="dominant-baseline: middle; font-size: 10.2px;" transform="translate(5,34.5)" y="0" x="0" id="text-entity-Participant-68b32e9a-f3aa-44cd-bbeb-65732517fccf-attr-1-type" class="er entityLabel">String</text><rect height="21" width="25.025136311848957" y="24" x="46.11888631184896" class="er attributeBoxOdd"/><text style="dominant-baseline: middle; font-size: 10.2px;" transform="translate(51.11888631184896,34.5)" y="0" x="0" id="text-entity-Participant-68b32e9a-f3aa-44cd-bbeb-65732517fccf-attr-1-name" class="er entityLabel">id</text><rect height="21" width="28.855977376302082" y="24" x="71.14402262369792" class="er attributeBoxOdd"/><text style="dominant-baseline: middle; font-size: 10.2px;" transform="translate(76.14402262369792,34.5)" y="0" x="0" id="text-entity-Participant-68b32e9a-f3aa-44cd-bbeb-65732517fccf-attr-1-key" class="er entityLabel">PK</text></g><g transform="translate(80.3094711303711,644 )" id="entity-User-f4695e44-ae36-4e7a-8d14-3921af7aba04"><rect height="129" width="192.40975952148438" y="0" x="0" class="er entityBox"/><text style="dominant-baseline: middle; text-anchor: middle; font-size: 12px;" transform="translate(96.20487976074219,12)" y="0" x="0" id="text-entity-User-f4695e44-ae36-4e7a-8d14-3921af7aba04" class="er entityLabel">User</text><rect height="21" width="59.28125" y="24" x="0" class="er attributeBoxOdd"/><text style="dominant-baseline: middle; font-size: 10.2px;" transform="translate(5,34.5)" y="0" x="0" id="text-entity-User-f4695e44-ae36-4e7a-8d14-3921af7aba04-attr-1-type" class="er entityLabel">String</text><rect height="21" width="59.59454345703125" y="24" x="59.28125" class="er attributeBoxOdd"/><text style="dominant-baseline: middle; font-size: 10.2px;" transform="translate(64.28125,34.5)" y="0" x="0" id="text-entity-User-f4695e44-ae36-4e7a-8d14-3921af7aba04-attr-1-name" class="er entityLabel">id</text><rect height="21" width="23.143341064453125" y="24" x="118.87579345703125" class="er attributeBoxOdd"/><text style="dominant-baseline: middle; font-size: 10.2px;" transform="translate(123.87579345703125,34.5)" y="0" x="0" id="text-entity-User-f4695e44-ae36-4e7a-8d14-3921af7aba04-attr-1-key" class="er entityLabel">PK</text><rect height="21" width="50.390625" y="24" x="142.01913452148438" class="er attributeBoxOdd"/><text style="dominant-baseline: middle; font-size: 10.2px;" transform="translate(147.01913452148438,34.5)" y="0" x="0" id="text-entity-User-f4695e44-ae36-4e7a-8d14-3921af7aba04-attr-1-comment" class="er entityLabel"/><rect height="21" width="59.28125" y="45" x="0" class="er attributeBoxEven"/><text style="dominant-baseline: middle; font-size: 10.2px;" transform="translate(5,55.5)" y="0" x="0" id="text-entity-User-f4695e44-ae36-4e7a-8d14-3921af7aba04-attr-2-type" class="er entityLabel">String</text><rect height="21" width="59.59454345703125" y="45" x="59.28125" class="er attributeBoxEven"/><text style="dominant-baseline: middle; font-size: 10.2px;" transform="translate(64.28125,55.5)" y="0" x="0" id="text-entity-User-f4695e44-ae36-4e7a-8d14-3921af7aba04-attr-2-name" class="er entityLabel">name</text><rect height="21" width="23.143341064453125" y="45" x="118.87579345703125" class="er attributeBoxEven"/><text style="dominant-baseline: middle; font-size: 10.2px;" transform="translate(123.87579345703125,55.5)" y="0" x="0" id="text-entity-User-f4695e44-ae36-4e7a-8d14-3921af7aba04-attr-2-key" class="er entityLabel"/><rect height="21" width="50.390625" y="45" x="142.01913452148438" class="er attributeBoxEven"/><text style="dominant-baseline: middle; font-size: 10.2px;" transform="translate(147.01913452148438,55.5)" y="0" x="0" id="text-entity-User-f4695e44-ae36-4e7a-8d14-3921af7aba04-attr-2-comment" class="er entityLabel"/><rect height="21" width="59.28125" y="66" x="0" class="er attributeBoxOdd"/><text style="dominant-baseline: middle; font-size: 10.2px;" transform="translate(5,76.5)" y="0" x="0" id="text-entity-User-f4695e44-ae36-4e7a-8d14-3921af7aba04-attr-3-type" class="er entityLabel">String</text><rect height="21" width="59.59454345703125" y="66" x="59.28125" class="er attributeBoxOdd"/><text style="dominant-baseline: middle; font-size: 10.2px;" transform="translate(64.28125,76.5)" y="0" x="0" id="text-entity-User-f4695e44-ae36-4e7a-8d14-3921af7aba04-attr-3-name" class="er entityLabel">email</text><rect height="21" width="23.143341064453125" y="66" x="118.87579345703125" class="er attributeBoxOdd"/><text style="dominant-baseline: middle; font-size: 10.2px;" transform="translate(123.87579345703125,76.5)" y="0" x="0" id="text-entity-User-f4695e44-ae36-4e7a-8d14-3921af7aba04-attr-3-key" class="er entityLabel"/><rect height="21" width="50.390625" y="66" x="142.01913452148438" class="er attributeBoxOdd"/><text style="dominant-baseline: middle; font-size: 10.2px;" transform="translate(147.01913452148438,76.5)" y="0" x="0" id="text-entity-User-f4695e44-ae36-4e7a-8d14-3921af7aba04-attr-3-comment" class="er entityLabel"/><rect height="21" width="59.28125" y="87" x="0" class="er attributeBoxEven"/><text style="dominant-baseline: middle; font-size: 10.2px;" transform="translate(5,97.5)" y="0" x="0" id="text-entity-User-f4695e44-ae36-4e7a-8d14-3921af7aba04-attr-4-type" class="er entityLabel">String</text><rect height="21" width="59.59454345703125" y="87" x="59.28125" class="er attributeBoxEven"/><text style="dominant-baseline: middle; font-size: 10.2px;" transform="translate(64.28125,97.5)" y="0" x="0" id="text-entity-User-f4695e44-ae36-4e7a-8d14-3921af7aba04-attr-4-name" class="er entityLabel">avatarUrl</text><rect height="21" width="23.143341064453125" y="87" x="118.87579345703125" class="er attributeBoxEven"/><text style="dominant-baseline: middle; font-size: 10.2px;" transform="translate(123.87579345703125,97.5)" y="0" x="0" id="text-entity-User-f4695e44-ae36-4e7a-8d14-3921af7aba04-attr-4-key" class="er entityLabel"/><rect height="21" width="50.390625" y="87" x="142.01913452148438" class="er attributeBoxEven"/><text style="dominant-baseline: middle; font-size: 10.2px;" transform="translate(147.01913452148438,97.5)" y="0" x="0" id="text-entity-User-f4695e44-ae36-4e7a-8d14-3921af7aba04-attr-4-comment" class="er entityLabel">nullable</text><rect height="21" width="59.28125" y="108" x="0" class="er attributeBoxOdd"/><text style="dominant-baseline: middle; font-size: 10.2px;" transform="translate(5,118.5)" y="0" x="0" id="text-entity-User-f4695e44-ae36-4e7a-8d14-3921af7aba04-attr-5-type" class="er entityLabel">DateTime</text><rect height="21" width="59.59454345703125" y="108" x="59.28125" class="er attributeBoxOdd"/><text style="dominant-baseline: middle; font-size: 10.2px;" transform="translate(64.28125,118.5)" y="0" x="0" id="text-entity-User-f4695e44-ae36-4e7a-8d14-3921af7aba04-attr-5-name" class="er entityLabel">createdAt</text><rect height="21" width="23.143341064453125" y="108" x="118.87579345703125" class="er attributeBoxOdd"/><text style="dominant-baseline: middle; font-size: 10.2px;" transform="translate(123.87579345703125,118.5)" y="0" x="0" id="text-entity-User-f4695e44-ae36-4e7a-8d14-3921af7aba04-attr-5-key" class="er entityLabel"/><rect height="21" width="50.390625" y="108" x="142.01913452148438" class="er attributeBoxOdd"/><text style="dominant-baseline: middle; font-size: 10.2px;" transform="translate(147.01913452148438,118.5)" y="0" x="0" id="text-entity-User-f4695e44-ae36-4e7a-8d14-3921af7aba04-attr-5-comment" class="er entityLabel"/></g><g transform="translate(326.5143508911133,228 )" id="entity-Game-7ac9d16e-da0e-4a8a-9f30-4931293c87f0"><rect height="108" width="222.23709106445312" y="0" x="0" class="er entityBox"/><text style="dominant-baseline: middle; text-anchor: middle; font-size: 12px;" transform="translate(111.11854553222656,12)" y="0" x="0" id="text-entity-Game-7ac9d16e-da0e-4a8a-9f30-4931293c87f0" class="er entityLabel">Game</text><rect height="21" width="59.28125" y="24" x="0" class="er attributeBoxOdd"/><text style="dominant-baseline: middle; font-size: 10.2px;" transform="translate(5,34.5)" y="0" x="0" id="text-entity-Game-7ac9d16e-da0e-4a8a-9f30-4931293c87f0-attr-1-type" class="er entityLabel">String</text><rect height="21" width="139.8125" y="24" x="59.28125" class="er attributeBoxOdd"/><text style="dominant-baseline: middle; font-size: 10.2px;" transform="translate(64.28125,34.5)" y="0" x="0" id="text-entity-Game-7ac9d16e-da0e-4a8a-9f30-4931293c87f0-attr-1-name" class="er entityLabel">id</text><rect height="21" width="23.143341064453125" y="24" x="199.09375" class="er attributeBoxOdd"/><text style="dominant-baseline: middle; font-size: 10.2px;" transform="translate(204.09375,34.5)" y="0" x="0" id="text-entity-Game-7ac9d16e-da0e-4a8a-9f30-4931293c87f0-attr-1-key" class="er entityLabel">PK</text><rect height="21" width="59.28125" y="45" x="0" class="er attributeBoxEven"/><text style="dominant-baseline: middle; font-size: 10.2px;" transform="translate(5,55.5)" y="0" x="0" id="text-entity-Game-7ac9d16e-da0e-4a8a-9f30-4931293c87f0-attr-2-type" class="er entityLabel">DateTime</text><rect height="21" width="139.8125" y="45" x="59.28125" class="er attributeBoxEven"/><text style="dominant-baseline: middle; font-size: 10.2px;" transform="translate(64.28125,55.5)" y="0" x="0" id="text-entity-Game-7ac9d16e-da0e-4a8a-9f30-4931293c87f0-attr-2-name" class="er entityLabel">date</text><rect height="21" width="23.143341064453125" y="45" x="199.09375" class="er attributeBoxEven"/><text style="dominant-baseline: middle; font-size: 10.2px;" transform="translate(204.09375,55.5)" y="0" x="0" id="text-entity-Game-7ac9d16e-da0e-4a8a-9f30-4931293c87f0-attr-2-key" class="er entityLabel"/><rect height="21" width="59.28125" y="66" x="0" class="er attributeBoxOdd"/><text style="dominant-baseline: middle; font-size: 10.2px;" transform="translate(5,76.5)" y="0" x="0" id="text-entity-Game-7ac9d16e-da0e-4a8a-9f30-4931293c87f0-attr-3-type" class="er entityLabel">String</text><rect height="21" width="139.8125" y="66" x="59.28125" class="er attributeBoxOdd"/><text style="dominant-baseline: middle; font-size: 10.2px;" transform="translate(64.28125,76.5)" y="0" x="0" id="text-entity-Game-7ac9d16e-da0e-4a8a-9f30-4931293c87f0-attr-3-name" class="er entityLabel">firstTeamCountryCode</text><rect height="21" width="23.143341064453125" y="66" x="199.09375" class="er attributeBoxOdd"/><text style="dominant-baseline: middle; font-size: 10.2px;" transform="translate(204.09375,76.5)" y="0" x="0" id="text-entity-Game-7ac9d16e-da0e-4a8a-9f30-4931293c87f0-attr-3-key" class="er entityLabel"/><rect height="21" width="59.28125" y="87" x="0" class="er attributeBoxEven"/><text style="dominant-baseline: middle; font-size: 10.2px;" transform="translate(5,97.5)" y="0" x="0" id="text-entity-Game-7ac9d16e-da0e-4a8a-9f30-4931293c87f0-attr-4-type" class="er entityLabel">String</text><rect height="21" width="139.8125" y="87" x="59.28125" class="er attributeBoxEven"/><text style="dominant-baseline: middle; font-size: 10.2px;" transform="translate(64.28125,97.5)" y="0" x="0" id="text-entity-Game-7ac9d16e-da0e-4a8a-9f30-4931293c87f0-attr-4-name" class="er entityLabel">secondTeamCountryCode</text><rect height="21" width="23.143341064453125" y="87" x="199.09375" class="er attributeBoxEven"/><text style="dominant-baseline: middle; font-size: 10.2px;" transform="translate(204.09375,97.5)" y="0" x="0" id="text-entity-Game-7ac9d16e-da0e-4a8a-9f30-4931293c87f0-attr-4-key" class="er entityLabel"/></g><g transform="translate(213.931640625,20 )" id="entity-Guess-85f69466-ed86-48af-a2b7-d1fceb03ac58"><rect height="108" width="186.28396606445312" y="0" x="0" class="er entityBox"/><text style="dominant-baseline: middle; text-anchor: middle; font-size: 12px;" transform="translate(93.14198303222656,12)" y="0" x="0" id="text-entity-Guess-85f69466-ed86-48af-a2b7-d1fceb03ac58" class="er entityLabel">Guess</text><rect height="21" width="59.28125" y="24" x="0" class="er attributeBoxOdd"/><text style="dominant-baseline: middle; font-size: 10.2px;" transform="translate(5,34.5)" y="0" x="0" id="text-entity-Guess-85f69466-ed86-48af-a2b7-d1fceb03ac58-attr-1-type" class="er entityLabel">String</text><rect height="21" width="103.859375" y="24" x="59.28125" class="er attributeBoxOdd"/><text style="dominant-baseline: middle; font-size: 10.2px;" transform="translate(64.28125,34.5)" y="0" x="0" id="text-entity-Guess-85f69466-ed86-48af-a2b7-d1fceb03ac58-attr-1-name" class="er entityLabel">id</text><rect height="21" width="23.143341064453125" y="24" x="163.140625" class="er attributeBoxOdd"/><text style="dominant-baseline: middle; font-size: 10.2px;" transform="translate(168.140625,34.5)" y="0" x="0" id="text-entity-Guess-85f69466-ed86-48af-a2b7-d1fceb03ac58-attr-1-key" class="er entityLabel">PK</text><rect height="21" width="59.28125" y="45" x="0" class="er attributeBoxEven"/><text style="dominant-baseline: middle; font-size: 10.2px;" transform="translate(5,55.5)" y="0" x="0" id="text-entity-Guess-85f69466-ed86-48af-a2b7-d1fceb03ac58-attr-2-type" class="er entityLabel">Int</text><rect height="21" width="103.859375" y="45" x="59.28125" class="er attributeBoxEven"/><text style="dominant-baseline: middle; font-size: 10.2px;" transform="translate(64.28125,55.5)" y="0" x="0" id="text-entity-Guess-85f69466-ed86-48af-a2b7-d1fceb03ac58-attr-2-name" class="er entityLabel">firstTeamPoints</text><rect height="21" width="23.143341064453125" y="45" x="163.140625" class="er attributeBoxEven"/><text style="dominant-baseline: middle; font-size: 10.2px;" transform="translate(168.140625,55.5)" y="0" x="0" id="text-entity-Guess-85f69466-ed86-48af-a2b7-d1fceb03ac58-attr-2-key" class="er entityLabel"/><rect height="21" width="59.28125" y="66" x="0" class="er attributeBoxOdd"/><text style="dominant-baseline: middle; font-size: 10.2px;" transform="translate(5,76.5)" y="0" x="0" id="text-entity-Guess-85f69466-ed86-48af-a2b7-d1fceb03ac58-attr-3-type" class="er entityLabel">Int</text><rect height="21" width="103.859375" y="66" x="59.28125" class="er attributeBoxOdd"/><text style="dominant-baseline: middle; font-size: 10.2px;" transform="translate(64.28125,76.5)" y="0" x="0" id="text-entity-Guess-85f69466-ed86-48af-a2b7-d1fceb03ac58-attr-3-name" class="er entityLabel">secondTeamPoints</text><rect height="21" width="23.143341064453125" y="66" x="163.140625" class="er attributeBoxOdd"/><text style="dominant-baseline: middle; font-size: 10.2px;" transform="translate(168.140625,76.5)" y="0" x="0" id="text-entity-Guess-85f69466-ed86-48af-a2b7-d1fceb03ac58-attr-3-key" class="er entityLabel"/><rect height="21" width="59.28125" y="87" x="0" class="er attributeBoxEven"/><text style="dominant-baseline: middle; font-size: 10.2px;" transform="translate(5,97.5)" y="0" x="0" id="text-entity-Guess-85f69466-ed86-48af-a2b7-d1fceb03ac58-attr-4-type" class="er entityLabel">DateTime</text><rect height="21" width="103.859375" y="87" x="59.28125" class="er attributeBoxEven"/><text style="dominant-baseline: middle; font-size: 10.2px;" transform="translate(64.28125,97.5)" y="0" x="0" id="text-entity-Guess-85f69466-ed86-48af-a2b7-d1fceb03ac58-attr-4-name" class="er entityLabel">createdAt</text><rect height="21" width="23.143341064453125" y="87" x="163.140625" class="er attributeBoxEven"/><text style="dominant-baseline: middle; font-size: 10.2px;" transform="translate(168.140625,97.5)" y="0" x="0" id="text-entity-Guess-85f69466-ed86-48af-a2b7-d1fceb03ac58-attr-4-key" class="er entityLabel"/></g><rect height="14" width="37.14453125" y="590.8954467773438" x="80.22395324707031" class="er relationshipLabelBox"/><text style="text-anchor: middle; dominant-baseline: middle; font-size: 12px;" y="597.8954467773438" x="98.79621887207031" id="rel1" class="er relationshipLabel">owner</text><rect height="14" width="26.240234375" y="462.4165954589844" x="248.81170654296875" class="er relationshipLabelBox"/><text style="text-anchor: middle; dominant-baseline: middle; font-size: 12px;" y="469.4165954589844" x="261.93182373046875" id="rel2" class="er relationshipLabel">user</text><rect height="14" width="25.640625" y="357.5418395996094" x="98.8763427734375" class="er relationshipLabelBox"/><text style="text-anchor: middle; dominant-baseline: middle; font-size: 12px;" y="364.5418395996094" x="111.6966552734375" id="rel3" class="er relationshipLabel">pool</text><rect height="14" width="65.451171875" y="176.638427734375" x="154.06634521484375" class="er relationshipLabelBox"/><text style="text-anchor: middle; dominant-baseline: middle; font-size: 12px;" y="183.638427734375" x="186.79193115234375" id="rel4" class="er relationshipLabel">participant</text><rect height="14" width="34.046875" y="162.60064697265625" x="404.0567932128906" class="er relationshipLabelBox"/><text style="text-anchor: middle; dominant-baseline: middle; font-size: 12px;" y="169.60064697265625" x="421.0802307128906" id="rel5" class="er relationshipLabel">game</text></svg>